<?xml version="1.0" standalone="no"?>
<!DOCTYPE svg PUBLIC "-//W3C//DTD SVG 20010904//EN"
 "http://www.w3.org/TR/2001/REC-SVG-20010904/DTD/svg10.dtd">
<svg version="1.0" xmlns="http://www.w3.org/2000/svg"
 width="260.000000pt" height="260.000000pt" viewBox="0 0 260.000000 260.000000"
 preserveAspectRatio="xMidYMid meet">
<metadata>
Created by potrace 1.11, written by Peter Selinger 2001-2013
</metadata>
<g transform="translate(0.000000,260.000000) scale(0.100000,-0.100000)"
fill="#000000" stroke="none">
<path d="M1190 2435 c-8 -2 -49 -9 -90 -15 -224 -37 -446 -156 -612 -328 -130
-135 -218 -278 -271 -442 -40 -123 -52 -206 -52 -355 0 -79 6 -170 14 -210 47
-236 157 -440 328 -606 210 -204 451 -310 743 -326 448 -24 876 227 1080 634
82 165 115 309 115 508 0 79 -6 170 -14 210 -47 236 -157 440 -328 606 -165
160 -344 257 -566 305 -66 14 -311 28 -347 19z m528 -542 c11 -10 43 -44 71
-76 39 -44 51 -65 51 -90 0 -41 -31 -101 -78 -149 l-36 -37 56 -58 c83 -87 94
-150 48 -258 -48 -111 -221 -279 -310 -300 -26 -6 -142 44 -201 86 l-29 20 0
388 c0 288 3 390 12 399 7 7 29 12 50 12 22 0 53 8 71 17 108 56 256 79 295
46z m-623 -283 c93 -45 106 -68 103 -190 l-3 -95 -39 -3 c-72 -6 -150 48 -117
81 13 13 14 106 1 127 -8 13 -12 12 -29 -5 -30 -30 -52 -126 -58 -261 -6 -132
6 -198 35 -192 24 5 80 83 93 131 21 72 43 76 137 28 50 -25 52 -40 14 -98
-15 -23 -38 -61 -52 -84 -59 -99 -164 -125 -278 -68 -103 51 -127 105 -126
284 1 172 43 311 111 365 39 31 118 23 208 -20z m-406 -175 c32 -37 47 -75 38
-98 -3 -8 -32 -23 -65 -35 -63 -23 -123 -60 -129 -78 -4 -11 78 -46 162 -71
27 -8 30 -13 33 -55 4 -57 -19 -108 -49 -108 -12 0 -74 23 -139 50 -65 28
-125 50 -133 50 -63 0 -103 45 -128 144 -14 55 -5 71 44 80 18 3 52 20 77 37
76 51 211 116 246 118 7 1 26 -15 43 -34z m1388 -4 c49 -16 111 -38 138 -49
28 -11 68 -24 90 -29 l40 -8 -1 -55 c-1 -31 -7 -73 -13 -93 -11 -33 -22 -42
-89 -76 -43 -21 -111 -59 -152 -84 -41 -26 -82 -47 -92 -47 -38 0 -84 103 -61
139 5 8 23 19 39 24 38 12 134 69 134 79 0 17 -66 47 -137 63 -72 16 -73 17
-73 48 0 31 31 95 54 109 18 12 31 10 123 -21z"/>
<path d="M1559 1715 c-63 -33 -71 -45 -67 -107 l3 -53 65 62 c36 34 73 75 83
92 l18 31 -28 0 c-15 -1 -49 -12 -74 -25z"/>
<path d="M1597 1376 c-110 -45 -107 -42 -107 -161 l0 -106 29 15 c64 33 157
165 175 249 6 23 3 27 -16 27 -13 0 -49 -11 -81 -24z"/>
</g>
</svg>
